<svg width="96" height="96" viewBox="0 0 96 96" fill="none" xmlns="http://www.w3.org/2000/svg">
<circle cx="48" cy="48" r="48" fill="#F3F9FF"/>
<path d="M34.6994 53.0961C34.2157 54.5299 33.9565 56.007 33.9565 57.4754C33.9565 64.6016 38.5605 70.3717 47.777 70.3717C56.9936 70.3717 61.5975 64.593 61.5975 57.4754C61.5975 56.0156 61.3384 54.5299 60.8547 53.0961" stroke="#2967E0" stroke-width="2" stroke-miterlimit="10" stroke-linecap="round" stroke-linejoin="round"/>
<path d="M39.502 25.4551C41.7478 23.8398 44.6328 22.8638 47.777 22.8638C50.9211 22.8638 53.8148 23.8398 56.052 25.4551" stroke="#2967E0" stroke-width="2" stroke-miterlimit="10" stroke-linecap="round" stroke-linejoin="round"/>
<path d="M43.4581 44.6829C38.4223 43.1453 34.8203 38.9819 34.8203 34.0929C34.8203 33.5055 34.8721 32.9268 34.9758 32.3654" stroke="#2967E0" stroke-width="2" stroke-miterlimit="10" stroke-linecap="round" stroke-linejoin="round"/>
<path d="M60.5785 32.3654C60.6822 32.9268 60.734 33.5055 60.734 34.0929C60.734 38.9819 57.132 43.1453 52.0962 44.6829" stroke="#2967E0" stroke-width="2" stroke-miterlimit="10" stroke-linecap="round" stroke-linejoin="round"/>
<path d="M47.7774 41.8669C50.6397 41.8669 52.9601 39.9333 52.9601 37.548C52.9601 35.1628 50.6397 33.2291 47.7774 33.2291C44.9151 33.2291 42.5947 35.1628 42.5947 37.548C42.5947 39.9333 44.9151 41.8669 47.7774 41.8669Z" stroke="#2967E0" stroke-width="2" stroke-miterlimit="10" stroke-linejoin="round"/>
<path d="M47.7774 38.4118C48.7315 38.4118 49.5049 37.8317 49.5049 37.1161C49.5049 36.4005 48.7315 35.8204 47.7774 35.8204C46.8233 35.8204 46.0498 36.4005 46.0498 37.1161C46.0498 37.8317 46.8233 38.4118 47.7774 38.4118Z" fill="#2967E0"/>
<path d="M42.4585 32.3654C42.4585 32.647 42.3717 32.8634 42.279 32.9869C42.2209 33.0644 42.1791 33.0864 42.1629 33.092C42.1466 33.0864 42.1048 33.0644 42.0467 32.9869C41.954 32.8634 41.8672 32.647 41.8672 32.3654C41.8672 32.0838 41.954 31.8673 42.0467 31.7438C42.1048 31.6663 42.1466 31.6444 42.1629 31.6388C42.1791 31.6444 42.2209 31.6663 42.279 31.7438C42.3717 31.8673 42.4585 32.0838 42.4585 32.3654ZM42.1554 33.0937C42.1554 33.0936 42.1567 33.0932 42.1595 33.093C42.1569 33.0938 42.1555 33.0938 42.1554 33.0937ZM42.1662 33.093C42.169 33.0932 42.1703 33.0936 42.1703 33.0937C42.1703 33.0938 42.1689 33.0938 42.1662 33.093ZM42.1703 31.6371C42.1703 31.6372 42.169 31.6375 42.1662 31.6377C42.1689 31.637 42.1703 31.6369 42.1703 31.6371ZM42.1595 31.6377C42.1567 31.6375 42.1554 31.6372 42.1554 31.6371C42.1555 31.6369 42.1569 31.637 42.1595 31.6377Z" fill="#2967E0" stroke="#2967E0" stroke-width="2"/>
<path d="M53.6875 32.3654C53.6875 32.647 53.6007 32.8634 53.508 32.9869C53.4499 33.0644 53.4081 33.0864 53.3919 33.092C53.3756 33.0864 53.3338 33.0644 53.2757 32.9869C53.1831 32.8634 53.0962 32.647 53.0962 32.3654C53.0962 32.0838 53.1831 31.8673 53.2757 31.7438C53.3338 31.6663 53.3756 31.6444 53.3919 31.6388C53.4081 31.6444 53.4499 31.6663 53.508 31.7438C53.6007 31.8673 53.6875 32.0838 53.6875 32.3654ZM53.3844 33.0937C53.3844 33.0936 53.3857 33.0932 53.3885 33.093C53.3859 33.0938 53.3845 33.0938 53.3844 33.0937ZM53.3952 33.093C53.398 33.0932 53.3993 33.0936 53.3993 33.0937C53.3993 33.0938 53.3979 33.0938 53.3952 33.093ZM53.3993 31.6371C53.3993 31.6372 53.398 31.6375 53.3952 31.6377C53.3979 31.637 53.3993 31.6369 53.3993 31.6371ZM53.3885 31.6377C53.3857 31.6375 53.3844 31.6372 53.3844 31.6371C53.3845 31.6369 53.3859 31.637 53.3885 31.6377Z" fill="#2967E0" stroke="#2967E0" stroke-width="2"/>
<path d="M40.2104 24.9887C39.2688 23.2093 37.4031 22 35.2523 22C32.1513 22 29.6377 24.5136 29.6377 27.6146C29.6377 30.586 31.9526 33.0132 34.8722 33.2119" stroke="#2967E0" stroke-width="2" stroke-miterlimit="10" stroke-linejoin="round"/>
<path d="M55.3438 24.9887C56.2853 23.2093 58.151 22 60.3018 22C63.4028 22 65.9164 24.5136 65.9164 27.6146C65.9164 30.586 63.6015 33.0132 60.6819 33.2119" stroke="#2967E0" stroke-width="2" stroke-miterlimit="10" stroke-linejoin="round"/>
<path d="M42.5945 70.3717L33.5421 73.3863C32.6697 73.68 31.7713 73.8614 30.8557 73.9305L30.3029 73.9737C25.2843 74.3624 21 70.3977 21 65.3618V62.5977C21 60.2137 22.9349 58.2788 25.3189 58.2788C27.3833 58.2788 29.2146 59.6004 29.8624 61.5525L31.3654 66.0528" stroke="#2967E0" stroke-width="2" stroke-miterlimit="10" stroke-linecap="round" stroke-linejoin="round"/>
<path d="M33.9566 61.4143L30.5015 62.2781" stroke="#2967E0" stroke-width="2" stroke-miterlimit="10" stroke-linejoin="round"/>
<path d="M52.96 70.3717L62.0124 73.3863C62.8848 73.68 63.7831 73.8614 64.6987 73.9305L65.2516 73.9737C70.2701 74.3624 74.5545 70.389 74.5545 65.3618V62.5977C74.5545 60.2137 72.6196 58.2788 70.2356 58.2788C68.1711 58.2788 66.3399 59.6004 65.6921 61.5525L64.1891 66.0528" stroke="#2967E0" stroke-width="2" stroke-miterlimit="10" stroke-linecap="round" stroke-linejoin="round"/>
<path d="M61.5977 61.4143L65.0528 62.2781" stroke="#2967E0" stroke-width="2" stroke-miterlimit="10" stroke-linejoin="round"/>
<path d="M55.0244 44.5101L67.9725 45.253C70.3911 45.4776 72.1705 47.6197 71.9459 50.047C71.7213 52.4656 69.5791 54.2449 67.1519 54.0204L61.9347 53.5366" stroke="#2967E0" stroke-width="2" stroke-miterlimit="10" stroke-linecap="round" stroke-linejoin="round"/>
<path d="M40.8669 44.5101L27.9188 45.253C25.5002 45.4776 23.7208 47.6197 23.9454 50.047C24.17 52.4656 26.3121 54.2449 28.7394 54.0204L33.9566 53.528" stroke="#2967E0" stroke-width="2" stroke-miterlimit="10" stroke-linecap="round" stroke-linejoin="round"/>
<path d="M40.9446 44.4669C38.9061 48.2762 41.1519 52.7678 41.1519 52.7678" stroke="#00CAF6" stroke-width="2" stroke-miterlimit="10" stroke-linecap="round" stroke-linejoin="round"/>
<path d="M46.9134 60.0063L48.9951 59.1944L47.8981 56.8449C46.2915 53.3984 43.4929 51.6708 41.1434 52.7678C38.7939 53.8648 38.6211 56.914 40.2278 60.3605L41.3248 62.7099L43.4583 61.7339" stroke="#00CAF6" stroke-width="2" stroke-miterlimit="10" stroke-linecap="round" stroke-linejoin="round"/>
<path d="M54.6875 44.4584C55.5513 46.1859 54.6875 48.7773 54.6875 48.7773" stroke="#00CAF6" stroke-width="2" stroke-miterlimit="10" stroke-linecap="round" stroke-linejoin="round"/>
<path d="M53.8238 55.6875C55.732 55.6875 57.2789 54.1406 57.2789 52.2323C57.2789 50.3241 55.732 48.7772 53.8238 48.7772C51.9156 48.7772 50.3687 50.3241 50.3687 52.2323C50.3687 54.1406 51.9156 55.6875 53.8238 55.6875Z" stroke="#00CAF6" stroke-width="2" stroke-miterlimit="10" stroke-linecap="round" stroke-linejoin="round"/>
</svg>
