<svg width="96" height="96" viewBox="0 0 96 96" fill="none" xmlns="http://www.w3.org/2000/svg">
<circle cx="48" cy="48" r="48" fill="#F3F9FF"/>
<path d="M79 48C79 48 70 69 48 69C26 69 17 48 17 48C17 48 26 27 48 27C70 27 79 48 79 48Z" stroke="#2967E0" stroke-width="2" stroke-miterlimit="10" stroke-linecap="round" stroke-linejoin="round"/>
<path d="M48 69C36.4 69 27 59.6 27 48" stroke="#00CAF6" stroke-width="2" stroke-miterlimit="10" stroke-linecap="round" stroke-linejoin="round"/>
<path d="M48 27C59.6 27 69 36.4 69 48" stroke="#00CAF6" stroke-width="2" stroke-miterlimit="10" stroke-linecap="round" stroke-linejoin="round"/>
<path d="M45.41 36.29C46.26 36.1 47.13 36 48 36C55.3 36 61.17 42.66 59.8 50.19C58.92 55.03 55.03 58.92 50.19 59.8C42.66 61.17 36 55.3 36 48C36 47.21 36.08 46.43 36.23 45.65H36.24C41.78 46.76 46.63 41.81 45.41 36.29Z" stroke="#00CAF6" stroke-width="2" stroke-miterlimit="10" stroke-linecap="round" stroke-linejoin="round"/>
</svg>
